<mxfile host="app.diagrams.net" agent="Mozilla/5.0 (Windows NT 10.0; Win64; x64) AppleWebKit/537.36 (KHTML, like Gecko) Chrome/136.0.0.0 Safari/537.36" version="27.0.6">
  <diagram name="Page-1" id="YhT8h0nItIB3-jN7yUH7">
    <mxGraphModel dx="3784" dy="2316" grid="1" gridSize="10" guides="1" tooltips="1" connect="1" arrows="1" fold="1" page="1" pageScale="1" pageWidth="850" pageHeight="1100" math="0" shadow="0">
      <root>
        <mxCell id="0" />
        <mxCell id="1" parent="0" />
        <mxCell id="DwkUKatxyJVgytEvVpzH-14" value="&lt;font style=&quot;font-size: 36px;&quot;&gt;SYSTEM (e.g., ALFRED)&lt;/font&gt;" style="swimlane;whiteSpace=wrap;html=1;startSize=70;strokeWidth=3;" parent="1" vertex="1">
          <mxGeometry x="-1000" y="-160" width="1820" height="1710" as="geometry" />
        </mxCell>
        <mxCell id="DwkUKatxyJVgytEvVpzH-19" value="&lt;font style=&quot;font-size: 28px;&quot;&gt;USER GROUPS&lt;/font&gt;" style="swimlane;whiteSpace=wrap;html=1;startSize=60;strokeWidth=2;" parent="DwkUKatxyJVgytEvVpzH-14" vertex="1">
          <mxGeometry x="1115" y="115" width="597.5" height="920" as="geometry" />
        </mxCell>
        <mxCell id="DwkUKatxyJVgytEvVpzH-20" value="&lt;font style=&quot;font-size: 22px;&quot;&gt;User group 1&#39;s guidelines&lt;/font&gt;" style="rounded=0;whiteSpace=wrap;html=1;" parent="DwkUKatxyJVgytEvVpzH-19" vertex="1">
          <mxGeometry x="190" y="115" width="210" height="79.81" as="geometry" />
        </mxCell>
        <mxCell id="DwkUKatxyJVgytEvVpzH-21" value="&lt;font style=&quot;font-size: 22px;&quot;&gt;User group 2&#39;s guidelines&lt;/font&gt;" style="rounded=0;whiteSpace=wrap;html=1;" parent="DwkUKatxyJVgytEvVpzH-19" vertex="1">
          <mxGeometry x="190" y="325.01" width="210" height="79.81" as="geometry" />
        </mxCell>
        <mxCell id="DwkUKatxyJVgytEvVpzH-22" value="&lt;font style=&quot;font-size: 22px;&quot;&gt;&lt;font style=&quot;&quot;&gt;User group 3&lt;/font&gt;&lt;span style=&quot;background-color: transparent; color: light-dark(rgb(0, 0, 0), rgb(255, 255, 255));&quot;&gt;&#39;s guidelines&lt;/span&gt;&lt;/font&gt;" style="rounded=0;whiteSpace=wrap;html=1;" parent="DwkUKatxyJVgytEvVpzH-19" vertex="1">
          <mxGeometry x="190" y="565.01" width="205" height="79.81" as="geometry" />
        </mxCell>
        <mxCell id="DwkUKatxyJVgytEvVpzH-46" value="&lt;font style=&quot;font-size: 22px;&quot;&gt;&lt;font style=&quot;&quot;&gt;User group n&lt;/font&gt;&lt;span style=&quot;background-color: transparent; color: light-dark(rgb(0, 0, 0), rgb(255, 255, 255));&quot;&gt;&#39;s guidelines&lt;/span&gt;&lt;/font&gt;" style="rounded=0;whiteSpace=wrap;html=1;" parent="DwkUKatxyJVgytEvVpzH-19" vertex="1">
          <mxGeometry x="195" y="755.19" width="205" height="79.81" as="geometry" />
        </mxCell>
        <mxCell id="DwkUKatxyJVgytEvVpzH-57" value="&lt;b&gt;&lt;font style=&quot;font-size: 28px;&quot;&gt;SYSTEM CONTEXT&lt;/font&gt;&lt;/b&gt;&lt;div&gt;&lt;b&gt;&lt;font style=&quot;font-size: 28px;&quot;&gt;&lt;br&gt;&lt;/font&gt;&lt;/b&gt;&lt;/div&gt;&lt;div&gt;&lt;font style=&quot;font-size: 28px;&quot;&gt;SUMMARY&lt;/font&gt;&lt;div&gt;&lt;span style=&quot;font-size: 28px;&quot;&gt;&amp;amp; PILLARS&lt;/span&gt;&lt;/div&gt;&lt;/div&gt;" style="rounded=0;whiteSpace=wrap;html=1;strokeWidth=2;" parent="DwkUKatxyJVgytEvVpzH-14" vertex="1">
          <mxGeometry x="365" y="140" width="320" height="220" as="geometry" />
        </mxCell>
        <mxCell id="DwkUKatxyJVgytEvVpzH-58" value="&lt;span style=&quot;font-size: 28px;&quot;&gt;&lt;b&gt;USE CASE RELATED RULES&lt;/b&gt; (e.g., definition, structure, types, scenario examples, task extraction examples&lt;/span&gt;" style="rounded=0;whiteSpace=wrap;html=1;strokeWidth=2;" parent="DwkUKatxyJVgytEvVpzH-14" vertex="1">
          <mxGeometry x="135" y="440" width="790" height="130" as="geometry" />
        </mxCell>
        <mxCell id="DwkUKatxyJVgytEvVpzH-78" style="edgeStyle=orthogonalEdgeStyle;rounded=0;orthogonalLoop=1;jettySize=auto;html=1;exitX=0.5;exitY=1;exitDx=0;exitDy=0;entryX=0.5;entryY=0;entryDx=0;entryDy=0;endArrow=block;endFill=0;endSize=30;strokeWidth=2;" parent="DwkUKatxyJVgytEvVpzH-14" source="DwkUKatxyJVgytEvVpzH-59" target="DwkUKatxyJVgytEvVpzH-73" edge="1">
          <mxGeometry relative="1" as="geometry" />
        </mxCell>
        <mxCell id="DwkUKatxyJVgytEvVpzH-59" value="&lt;span style=&quot;font-size: 28px;&quot;&gt;&lt;b&gt;USER STORY RELATED RULES&lt;/b&gt; (e.g., definition, structure, examples, &lt;b&gt;clustering techniques&lt;/b&gt;)&lt;/span&gt;" style="rounded=0;whiteSpace=wrap;html=1;strokeWidth=2;" parent="DwkUKatxyJVgytEvVpzH-14" vertex="1">
          <mxGeometry x="135" y="770" width="790" height="130" as="geometry" />
        </mxCell>
        <mxCell id="DwkUKatxyJVgytEvVpzH-65" value="&lt;font style=&quot;font-size: 28px;&quot;&gt;&lt;b&gt;NON-FUNCTIONAL USER STORY CONFLICT HANDLING TECHNIQUE DESCRIPTION&lt;/b&gt;&lt;/font&gt;" style="swimlane;fontStyle=0;childLayout=stackLayout;horizontal=1;startSize=110;horizontalStack=0;resizeParent=1;resizeParentMax=0;resizeLast=0;collapsible=1;marginBottom=0;whiteSpace=wrap;html=1;strokeWidth=2;" parent="DwkUKatxyJVgytEvVpzH-14" vertex="1">
          <mxGeometry x="925" y="1120" width="790" height="210" as="geometry" />
        </mxCell>
        <mxCell id="DwkUKatxyJVgytEvVpzH-66" value="&lt;font style=&quot;font-size: 24px;&quot;&gt;Identification &amp;amp; Classification: Sadana &amp;amp; Liu technique&lt;/font&gt;" style="text;strokeColor=none;fillColor=none;align=left;verticalAlign=middle;spacingLeft=4;spacingRight=4;overflow=hidden;points=[[0,0.5],[1,0.5]];portConstraint=eastwest;rotatable=0;whiteSpace=wrap;html=1;" parent="DwkUKatxyJVgytEvVpzH-65" vertex="1">
          <mxGeometry y="110" width="790" height="50" as="geometry" />
        </mxCell>
        <mxCell id="DwkUKatxyJVgytEvVpzH-69" value="&lt;font style=&quot;font-size: 24px;&quot;&gt;Resolution strategies based on Sadana &amp;amp; Liu technique&lt;/font&gt;" style="text;strokeColor=none;fillColor=none;align=left;verticalAlign=middle;spacingLeft=4;spacingRight=4;overflow=hidden;points=[[0,0.5],[1,0.5]];portConstraint=eastwest;rotatable=0;whiteSpace=wrap;html=1;" parent="DwkUKatxyJVgytEvVpzH-65" vertex="1">
          <mxGeometry y="160" width="790" height="50" as="geometry" />
        </mxCell>
        <mxCell id="DwkUKatxyJVgytEvVpzH-70" value="&lt;font style=&quot;font-size: 28px;&quot;&gt;&lt;b&gt;FUNCTIONAL USER STORY CONFLICT HANDLING TECHNIQUE DESCRIPTION&lt;/b&gt;&lt;/font&gt;" style="swimlane;fontStyle=0;childLayout=stackLayout;horizontal=1;startSize=110;horizontalStack=0;resizeParent=1;resizeParentMax=0;resizeLast=0;collapsible=1;marginBottom=0;whiteSpace=wrap;html=1;strokeWidth=2;" parent="DwkUKatxyJVgytEvVpzH-14" vertex="1">
          <mxGeometry x="922.5" y="1400" width="790" height="210" as="geometry" />
        </mxCell>
        <mxCell id="DwkUKatxyJVgytEvVpzH-71" value="&lt;font style=&quot;font-size: 24px;&quot;&gt;Identification &amp;amp; Classification: Chentouf technique&lt;/font&gt;" style="text;strokeColor=none;fillColor=none;align=left;verticalAlign=middle;spacingLeft=4;spacingRight=4;overflow=hidden;points=[[0,0.5],[1,0.5]];portConstraint=eastwest;rotatable=0;whiteSpace=wrap;html=1;" parent="DwkUKatxyJVgytEvVpzH-70" vertex="1">
          <mxGeometry y="110" width="790" height="50" as="geometry" />
        </mxCell>
        <mxCell id="DwkUKatxyJVgytEvVpzH-72" value="&lt;font style=&quot;font-size: 24px;&quot;&gt;Resolution strategies based on Chentouf technique&lt;/font&gt;" style="text;strokeColor=none;fillColor=none;align=left;verticalAlign=middle;spacingLeft=4;spacingRight=4;overflow=hidden;points=[[0,0.5],[1,0.5]];portConstraint=eastwest;rotatable=0;whiteSpace=wrap;html=1;" parent="DwkUKatxyJVgytEvVpzH-70" vertex="1">
          <mxGeometry y="160" width="790" height="50" as="geometry" />
        </mxCell>
        <mxCell id="DwkUKatxyJVgytEvVpzH-73" value="&lt;span style=&quot;font-size: 26px;&quot;&gt;USER STORIES CLUSTERING&lt;/span&gt;" style="swimlane;whiteSpace=wrap;html=1;startSize=70;strokeWidth=2;" parent="DwkUKatxyJVgytEvVpzH-14" vertex="1">
          <mxGeometry x="120" y="1120" width="580" height="370" as="geometry" />
        </mxCell>
        <mxCell id="DwkUKatxyJVgytEvVpzH-74" value="&lt;b style=&quot;&quot;&gt;&lt;font style=&quot;font-size: 24px;&quot;&gt;NON-FUNCTIONAL USER STORIES CLUSTERS (Hard-coded by Pillars)&lt;/font&gt;&lt;/b&gt;" style="rounded=0;whiteSpace=wrap;html=1;strokeWidth=1;" parent="DwkUKatxyJVgytEvVpzH-73" vertex="1">
          <mxGeometry x="57.5" y="110" width="465" height="80" as="geometry" />
        </mxCell>
        <mxCell id="DwkUKatxyJVgytEvVpzH-75" value="&lt;b style=&quot;&quot;&gt;&lt;font style=&quot;font-size: 24px;&quot;&gt;FUNCTIONAL USER STORIES CLUSTERING GUIDELINES&amp;nbsp;&lt;/font&gt;&lt;/b&gt;&lt;div&gt;&lt;b style=&quot;&quot;&gt;&lt;font style=&quot;font-size: 24px;&quot;&gt;(Poort and de With technique)&lt;/font&gt;&lt;/b&gt;&lt;/div&gt;" style="rounded=0;whiteSpace=wrap;html=1;strokeWidth=1;" parent="DwkUKatxyJVgytEvVpzH-73" vertex="1">
          <mxGeometry x="57.5" y="220" width="465" height="100" as="geometry" />
        </mxCell>
        <mxCell id="DwkUKatxyJVgytEvVpzH-2" value="&lt;font style=&quot;font-size: 28px;&quot;&gt;PERSONAS&lt;/font&gt;" style="swimlane;whiteSpace=wrap;html=1;startSize=60;strokeWidth=2;" parent="1" vertex="1">
          <mxGeometry x="990" y="-45" width="400" height="920" as="geometry" />
        </mxCell>
        <mxCell id="DwkUKatxyJVgytEvVpzH-3" value="&lt;font style=&quot;font-size: 22px;&quot;&gt;Group 1&lt;/font&gt;&lt;font style=&quot;font-size: 20px;&quot;&gt; &lt;span style=&quot;font-weight: normal;&quot;&gt;(e.g., Developers &amp;amp; App Creators&lt;/span&gt;&lt;/font&gt;" style="swimlane;horizontal=0;whiteSpace=wrap;html=1;startSize=90;" parent="DwkUKatxyJVgytEvVpzH-2" vertex="1">
          <mxGeometry x="45" y="85" width="310" height="140" as="geometry" />
        </mxCell>
        <mxCell id="DwkUKatxyJVgytEvVpzH-4" value="&lt;font style=&quot;font-size: 20px;&quot;&gt;P-001 (Daniel - Full-stack developer)&lt;/font&gt;" style="rounded=0;whiteSpace=wrap;html=1;" parent="DwkUKatxyJVgytEvVpzH-3" vertex="1">
          <mxGeometry x="100" y="30" width="200" height="80" as="geometry" />
        </mxCell>
        <mxCell id="DwkUKatxyJVgytEvVpzH-5" value="&lt;font style=&quot;font-size: 22px;&quot;&gt;Group 2&lt;/font&gt;&lt;font style=&quot;font-size: 20px;&quot;&gt;&amp;nbsp;&lt;/font&gt;&lt;div&gt;&lt;font style=&quot;font-size: 20px;&quot;&gt;&lt;span style=&quot;font-weight: normal;&quot;&gt;(e.g., Caregivers &amp;amp; Medical Staff)&lt;/span&gt;&lt;/font&gt;&lt;/div&gt;" style="swimlane;horizontal=0;whiteSpace=wrap;html=1;startSize=90;" parent="DwkUKatxyJVgytEvVpzH-2" vertex="1">
          <mxGeometry x="45" y="265" width="310" height="200" as="geometry" />
        </mxCell>
        <mxCell id="DwkUKatxyJVgytEvVpzH-6" value="&lt;font style=&quot;font-size: 20px;&quot;&gt;P-004 (Mike - Registered Nurse)&lt;/font&gt;" style="rounded=0;whiteSpace=wrap;html=1;" parent="DwkUKatxyJVgytEvVpzH-5" vertex="1">
          <mxGeometry x="100" y="20" width="200" height="70" as="geometry" />
        </mxCell>
        <mxCell id="DwkUKatxyJVgytEvVpzH-7" value="&lt;font style=&quot;font-size: 20px;&quot;&gt;P-006 (Sarah - Informal Caregiver)&lt;/font&gt;" style="rounded=0;whiteSpace=wrap;html=1;" parent="DwkUKatxyJVgytEvVpzH-5" vertex="1">
          <mxGeometry x="100" y="110" width="200" height="70" as="geometry" />
        </mxCell>
        <mxCell id="DwkUKatxyJVgytEvVpzH-8" value="&lt;font style=&quot;font-size: 22px;&quot;&gt;Group 3&lt;/font&gt;&lt;font style=&quot;font-size: 20px;&quot;&gt;&amp;nbsp;&lt;/font&gt;&lt;div&gt;&lt;font style=&quot;font-size: 20px;&quot;&gt;&lt;span style=&quot;font-weight: normal;&quot;&gt;(e.g., Older Adults)&lt;/span&gt;&lt;/font&gt;&lt;/div&gt;" style="swimlane;horizontal=0;whiteSpace=wrap;html=1;startSize=90;" parent="DwkUKatxyJVgytEvVpzH-2" vertex="1">
          <mxGeometry x="45" y="505" width="310" height="200" as="geometry" />
        </mxCell>
        <mxCell id="DwkUKatxyJVgytEvVpzH-9" value="&lt;font style=&quot;font-size: 20px;&quot;&gt;P-002 (Elena - Open-minded Older)&lt;/font&gt;" style="rounded=0;whiteSpace=wrap;html=1;" parent="DwkUKatxyJVgytEvVpzH-8" vertex="1">
          <mxGeometry x="100" y="20" width="200" height="70" as="geometry" />
        </mxCell>
        <mxCell id="DwkUKatxyJVgytEvVpzH-10" value="&lt;font style=&quot;font-size: 20px;&quot;&gt;P-005 (Olivia - Difficult Older)&lt;/font&gt;" style="rounded=0;whiteSpace=wrap;html=1;" parent="DwkUKatxyJVgytEvVpzH-8" vertex="1">
          <mxGeometry x="100" y="110" width="200" height="70" as="geometry" />
        </mxCell>
        <mxCell id="DwkUKatxyJVgytEvVpzH-50" value="&lt;span style=&quot;font-size: 22px;&quot;&gt;&lt;b&gt;Group n&lt;/b&gt;&lt;/span&gt;" style="rounded=0;whiteSpace=wrap;html=1;" parent="DwkUKatxyJVgytEvVpzH-2" vertex="1">
          <mxGeometry x="97.5" y="755.19" width="205" height="79.81" as="geometry" />
        </mxCell>
        <mxCell id="DwkUKatxyJVgytEvVpzH-11" style="edgeStyle=orthogonalEdgeStyle;rounded=0;orthogonalLoop=1;jettySize=auto;html=1;exitX=0;exitY=0.5;exitDx=0;exitDy=0;entryX=1;entryY=0.5;entryDx=0;entryDy=0;strokeWidth=2;startArrow=classic;startFill=1;" parent="1" source="DwkUKatxyJVgytEvVpzH-3" target="DwkUKatxyJVgytEvVpzH-20" edge="1">
          <mxGeometry relative="1" as="geometry">
            <mxPoint x="1210" y="95" as="targetPoint" />
          </mxGeometry>
        </mxCell>
        <mxCell id="DwkUKatxyJVgytEvVpzH-12" style="edgeStyle=orthogonalEdgeStyle;rounded=0;orthogonalLoop=1;jettySize=auto;html=1;exitX=0;exitY=0.5;exitDx=0;exitDy=0;strokeWidth=2;startArrow=classic;startFill=1;" parent="1" source="DwkUKatxyJVgytEvVpzH-5" target="DwkUKatxyJVgytEvVpzH-21" edge="1">
          <mxGeometry relative="1" as="geometry">
            <mxPoint x="1220" y="295.38461538461524" as="targetPoint" />
          </mxGeometry>
        </mxCell>
        <mxCell id="DwkUKatxyJVgytEvVpzH-13" style="edgeStyle=orthogonalEdgeStyle;rounded=0;orthogonalLoop=1;jettySize=auto;html=1;exitX=0;exitY=0.5;exitDx=0;exitDy=0;strokeWidth=2;startArrow=classic;startFill=1;" parent="1" source="DwkUKatxyJVgytEvVpzH-8" target="DwkUKatxyJVgytEvVpzH-22" edge="1">
          <mxGeometry relative="1" as="geometry" />
        </mxCell>
        <mxCell id="DwkUKatxyJVgytEvVpzH-51" style="edgeStyle=orthogonalEdgeStyle;rounded=0;orthogonalLoop=1;jettySize=auto;html=1;exitX=1;exitY=0.5;exitDx=0;exitDy=0;entryX=0;entryY=0.5;entryDx=0;entryDy=0;strokeWidth=2;startArrow=classic;startFill=1;" parent="1" source="DwkUKatxyJVgytEvVpzH-46" target="DwkUKatxyJVgytEvVpzH-50" edge="1">
          <mxGeometry relative="1" as="geometry" />
        </mxCell>
      </root>
    </mxGraphModel>
  </diagram>
</mxfile>
